<svg width="116" height="29" viewBox="0 0 116 29" fill="none" xmlns="http://www.w3.org/2000/svg">
<g clip-path="url(#clip0_20_36)">
<rect width="116" height="29" rx="10" fill="#394150"/>
<path d="M42.3159 13H41.2591C41.1966 12.696 41.0872 12.429 40.9309 12.1989C40.7775 11.9688 40.59 11.7756 40.3684 11.6193C40.1497 11.4602 39.9068 11.3409 39.6397 11.2614C39.3727 11.1818 39.0943 11.142 38.8045 11.142C38.2761 11.142 37.7974 11.2756 37.3684 11.5426C36.9423 11.8097 36.6028 12.2031 36.35 12.723C36.1 13.2429 35.975 13.8807 35.975 14.6364C35.975 15.392 36.1 16.0298 36.35 16.5497C36.6028 17.0696 36.9423 17.4631 37.3684 17.7301C37.7974 17.9972 38.2761 18.1307 38.8045 18.1307C39.0943 18.1307 39.3727 18.0909 39.6397 18.0114C39.9068 17.9318 40.1497 17.8139 40.3684 17.6577C40.59 17.4986 40.7775 17.304 40.9309 17.0739C41.0872 16.8409 41.1966 16.5739 41.2591 16.2727H42.3159C42.2363 16.7187 42.0914 17.1179 41.8812 17.4702C41.671 17.8224 41.4096 18.1222 41.0971 18.3693C40.7846 18.6136 40.4338 18.7997 40.0446 18.9276C39.6582 19.0554 39.2449 19.1193 38.8045 19.1193C38.0602 19.1193 37.3983 18.9375 36.8187 18.5739C36.2392 18.2102 35.7832 17.6932 35.4508 17.0227C35.1184 16.3523 34.9522 15.5568 34.9522 14.6364C34.9522 13.7159 35.1184 12.9205 35.4508 12.25C35.7832 11.5795 36.2392 11.0625 36.8187 10.6989C37.3983 10.3352 38.0602 10.1534 38.8045 10.1534C39.2449 10.1534 39.6582 10.2173 40.0446 10.3452C40.4338 10.473 40.7846 10.6605 41.0971 10.9077C41.4096 11.152 41.671 11.4503 41.8812 11.8026C42.0914 12.152 42.2363 12.5511 42.3159 13ZM44.3816 19H43.2736L46.4782 10.2727H47.5691L50.7736 19H49.6657L47.0577 11.6534H46.9895L44.3816 19ZM44.7907 15.5909H49.2566V16.5284H44.7907V15.5909ZM59.0534 10.2727V19H58.0307L53.275 12.1477H53.1898V19H52.133V10.2727H53.1557L57.9284 17.142H58.0137V10.2727H59.0534ZM68.1909 13H67.1341C67.0716 12.696 66.9622 12.429 66.8059 12.1989C66.6525 11.9688 66.465 11.7756 66.2434 11.6193C66.0247 11.4602 65.7818 11.3409 65.5147 11.2614C65.2477 11.1818 64.9693 11.142 64.6795 11.142C64.1511 11.142 63.6724 11.2756 63.2434 11.5426C62.8173 11.8097 62.4778 12.2031 62.225 12.723C61.975 13.2429 61.85 13.8807 61.85 14.6364C61.85 15.392 61.975 16.0298 62.225 16.5497C62.4778 17.0696 62.8173 17.4631 63.2434 17.7301C63.6724 17.9972 64.1511 18.1307 64.6795 18.1307C64.9693 18.1307 65.2477 18.0909 65.5147 18.0114C65.7818 17.9318 66.0247 17.8139 66.2434 17.6577C66.465 17.4986 66.6525 17.304 66.8059 17.0739C66.9622 16.8409 67.0716 16.5739 67.1341 16.2727H68.1909C68.1113 16.7187 67.9664 17.1179 67.7562 17.4702C67.546 17.8224 67.2846 18.1222 66.9721 18.3693C66.6596 18.6136 66.3088 18.7997 65.9196 18.9276C65.5332 19.0554 65.1199 19.1193 64.6795 19.1193C63.9352 19.1193 63.2733 18.9375 62.6937 18.5739C62.1142 18.2102 61.6582 17.6932 61.3258 17.0227C60.9934 16.3523 60.8272 15.5568 60.8272 14.6364C60.8272 13.7159 60.9934 12.9205 61.3258 12.25C61.6582 11.5795 62.1142 11.0625 62.6937 10.6989C63.2733 10.3352 63.9352 10.1534 64.6795 10.1534C65.1199 10.1534 65.5332 10.2173 65.9196 10.3452C66.3088 10.473 66.6596 10.6605 66.9721 10.9077C67.2846 11.152 67.546 11.4503 67.7562 11.8026C67.9664 12.152 68.1113 12.5511 68.1909 13ZM69.8986 19V10.2727H75.1657V11.2102H70.9554V14.1591H74.8929V15.0966H70.9554V18.0625H75.2338V19H69.8986ZM77.0705 19V10.2727H78.1273V18.0625H82.1841V19H77.0705Z" fill="white"/>
</g>
<defs>
<clipPath id="clip0_20_36">
<rect width="116" height="29" rx="10" fill="white"/>
</clipPath>
</defs>
</svg>