<svg width="117" height="27" viewBox="0 0 117 27" fill="none" xmlns="http://www.w3.org/2000/svg">
<g clip-path="url(#clip0_19_4)">
<rect width="117" height="27" rx="10" fill="#394150"/>
<path d="M34.0151 13H32.9583C32.8958 12.696 32.7864 12.429 32.6301 12.1989C32.4767 11.9688 32.2892 11.7756 32.0676 11.6193C31.8489 11.4602 31.606 11.3409 31.339 11.2614C31.0719 11.1818 30.7935 11.142 30.5037 11.142C29.9753 11.142 29.4966 11.2756 29.0676 11.5426C28.6415 11.8097 28.302 12.2031 28.0492 12.723C27.7992 13.2429 27.6742 13.8807 27.6742 14.6364C27.6742 15.392 27.7992 16.0298 28.0492 16.5497C28.302 17.0696 28.6415 17.4631 29.0676 17.7301C29.4966 17.9972 29.9753 18.1307 30.5037 18.1307C30.7935 18.1307 31.0719 18.0909 31.339 18.0114C31.606 17.9318 31.8489 17.8139 32.0676 17.6577C32.2892 17.4986 32.4767 17.304 32.6301 17.0739C32.7864 16.8409 32.8958 16.5739 32.9583 16.2727H34.0151C33.9355 16.7187 33.7907 17.1179 33.5804 17.4702C33.3702 17.8224 33.1088 18.1222 32.7963 18.3693C32.4838 18.6136 32.133 18.7997 31.7438 18.9276C31.3574 19.0554 30.9441 19.1193 30.5037 19.1193C29.7594 19.1193 29.0975 18.9375 28.5179 18.5739C27.9384 18.2102 27.4824 17.6932 27.15 17.0227C26.8176 16.3523 26.6515 15.5568 26.6515 14.6364C26.6515 13.7159 26.8176 12.9205 27.15 12.25C27.4824 11.5795 27.9384 11.0625 28.5179 10.6989C29.0975 10.3352 29.7594 10.1534 30.5037 10.1534C30.9441 10.1534 31.3574 10.2173 31.7438 10.3452C32.133 10.473 32.4838 10.6605 32.7963 10.9077C33.1088 11.152 33.3702 11.4503 33.5804 11.8026C33.7907 12.152 33.9355 12.5511 34.0151 13ZM43.0865 14.6364C43.0865 15.5568 42.9203 16.3523 42.5879 17.0227C42.2555 17.6932 41.7995 18.2102 41.22 18.5739C40.6404 18.9375 39.9785 19.1193 39.2342 19.1193C38.4899 19.1193 37.8279 18.9375 37.2484 18.5739C36.6689 18.2102 36.2129 17.6932 35.8805 17.0227C35.5481 16.3523 35.3819 15.5568 35.3819 14.6364C35.3819 13.7159 35.5481 12.9205 35.8805 12.25C36.2129 11.5795 36.6689 11.0625 37.2484 10.6989C37.8279 10.3352 38.4899 10.1534 39.2342 10.1534C39.9785 10.1534 40.6404 10.3352 41.22 10.6989C41.7995 11.0625 42.2555 11.5795 42.5879 12.25C42.9203 12.9205 43.0865 13.7159 43.0865 14.6364ZM42.0637 14.6364C42.0637 13.8807 41.9373 13.2429 41.6845 12.723C41.4345 12.2031 41.095 11.8097 40.666 11.5426C40.2399 11.2756 39.7626 11.142 39.2342 11.142C38.7058 11.142 38.2271 11.2756 37.7981 11.5426C37.372 11.8097 37.0325 12.2031 36.7797 12.723C36.5297 13.2429 36.4047 13.8807 36.4047 14.6364C36.4047 15.392 36.5297 16.0298 36.7797 16.5497C37.0325 17.0696 37.372 17.4631 37.7981 17.7301C38.2271 17.9972 38.7058 18.1307 39.2342 18.1307C39.7626 18.1307 40.2399 17.9972 40.666 17.7301C41.095 17.4631 41.4345 17.0696 41.6845 16.5497C41.9373 16.0298 42.0637 15.392 42.0637 14.6364ZM44.8635 10.2727H46.1248L49.0907 17.517H49.193L52.1589 10.2727H53.4203V19H52.4316V12.3693H52.3464L49.6191 19H48.6646L45.9373 12.3693H45.8521V19H44.8635V10.2727ZM55.5392 10.2727H56.8006L59.7665 17.517H59.8688L62.8347 10.2727H64.0961V19H63.1074V12.3693H63.0222L60.2949 19H59.3404L56.6131 12.3693H56.5279V19H55.5392V10.2727ZM66.215 19V10.2727H71.4821V11.2102H67.2718V14.1591H71.2093V15.0966H67.2718V18.0625H71.5502V19H66.215ZM80.3074 10.2727V19H79.2846L74.5289 12.1477H74.4437V19H73.3869V10.2727H74.4096L79.1824 17.142H79.2676V10.2727H80.3074ZM81.9448 11.2102V10.2727H88.4902V11.2102H85.7459V19H84.6891V11.2102H81.9448Z" fill="white"/>
</g>
<defs>
<clipPath id="clip0_19_4">
<rect width="117" height="27" rx="10" fill="white"/>
</clipPath>
</defs>
</svg>
