<svg width="110" height="34" viewBox="0 0 116 29" fill="none" xmlns="http://www.w3.org/2000/svg">
<g clip-path="url(#clip0_20_36)">
<rect width="128" height="38" rx="10" fill="#394150"/>
<path d="M28.8393 10.4545C28.7882 10.0227 28.5808 9.6875 28.2172 9.44886C27.8535 9.21023 27.4075 9.09091 26.8791 9.09091C26.4927 9.09091 26.1547 9.15341 25.8649 9.27841C25.5779 9.40341 25.3535 9.57528 25.1916 9.79403C25.0325 10.0128 24.9529 10.2614 24.9529 10.5398C24.9529 10.7727 25.0083 10.973 25.1191 11.1406C25.2328 11.3054 25.3777 11.4432 25.5538 11.554C25.7299 11.6619 25.9146 11.7514 26.1078 11.8224C26.301 11.8906 26.4785 11.946 26.6404 11.9886L27.5268 12.2273C27.7541 12.2869 28.0069 12.3693 28.2853 12.4744C28.5666 12.5795 28.835 12.723 29.0907 12.9048C29.3493 13.0838 29.5623 13.3139 29.7299 13.5952C29.8976 13.8764 29.9814 14.2216 29.9814 14.6307C29.9814 15.1023 29.8578 15.5284 29.6106 15.9091C29.3663 16.2898 29.0083 16.5923 28.5368 16.8168C28.068 17.0412 27.4984 17.1534 26.8279 17.1534C26.2029 17.1534 25.6618 17.0526 25.2044 16.8509C24.7498 16.6491 24.3919 16.3679 24.1305 16.0071C23.872 15.6463 23.7257 15.2273 23.6916 14.75H24.7825C24.8109 15.0795 24.9217 15.3523 25.1149 15.5682C25.3109 15.7812 25.5581 15.9403 25.8564 16.0455C26.1575 16.1477 26.4814 16.1989 26.8279 16.1989C27.2314 16.1989 27.5936 16.1335 27.9146 16.0028C28.2356 15.8693 28.4899 15.6847 28.6774 15.4489C28.8649 15.2102 28.9586 14.9318 28.9586 14.6136C28.9586 14.3239 28.8777 14.0881 28.7157 13.9062C28.5538 13.7244 28.3407 13.5767 28.0765 13.4631C27.8123 13.3494 27.5268 13.25 27.22 13.1648L26.1461 12.858C25.4643 12.6619 24.9245 12.3821 24.5268 12.0185C24.1291 11.6548 23.9302 11.179 23.9302 10.5909C23.9302 10.1023 24.0623 9.67614 24.3265 9.3125C24.5936 8.94602 24.9515 8.66193 25.4004 8.46023C25.8521 8.25568 26.3564 8.15341 26.9132 8.15341C27.4757 8.15341 27.9757 8.25426 28.4132 8.45597C28.8507 8.65483 29.1973 8.92756 29.4529 9.27415C29.7115 9.62074 29.8478 10.0142 29.862 10.4545H28.8393ZM33.5087 17.1534C33.0939 17.1534 32.7175 17.0753 32.3794 16.919C32.0414 16.7599 31.7729 16.5312 31.574 16.233C31.3752 15.9318 31.2757 15.5682 31.2757 15.142C31.2757 14.767 31.3496 14.4631 31.4973 14.2301C31.6451 13.9943 31.8425 13.8097 32.0897 13.6761C32.3368 13.5426 32.6096 13.4432 32.9078 13.3778C33.209 13.3097 33.5115 13.2557 33.8155 13.2159C34.2132 13.1648 34.5357 13.1264 34.7828 13.1009C35.0328 13.0724 35.2147 13.0256 35.3283 12.9602C35.4448 12.8949 35.503 12.7812 35.503 12.6193V12.5852C35.503 12.1648 35.388 11.8381 35.1578 11.6051C34.9306 11.3722 34.5854 11.2557 34.1223 11.2557C33.6422 11.2557 33.2658 11.3608 32.9931 11.571C32.7203 11.7812 32.5286 12.0057 32.4178 12.2443L31.4632 11.9034C31.6337 11.5057 31.861 11.196 32.1451 10.9744C32.432 10.75 32.7445 10.5937 33.0826 10.5057C33.4235 10.4148 33.7587 10.3693 34.0882 10.3693C34.2985 10.3693 34.54 10.3949 34.8127 10.446C35.0882 10.4943 35.3539 10.5952 35.6096 10.7486C35.8681 10.902 36.0826 11.1335 36.253 11.4432C36.4235 11.7528 36.5087 12.1676 36.5087 12.6875V17H35.503V16.1136H35.4519C35.3837 16.2557 35.2701 16.4077 35.111 16.5696C34.9519 16.7315 34.7402 16.8693 34.476 16.983C34.2118 17.0966 33.8894 17.1534 33.5087 17.1534ZM33.6621 16.25C34.0598 16.25 34.3951 16.1719 34.6678 16.0156C34.9434 15.8594 35.1507 15.6577 35.29 15.4105C35.432 15.1634 35.503 14.9034 35.503 14.6307V13.7102C35.4604 13.7614 35.3667 13.8082 35.2218 13.8509C35.0797 13.8906 34.915 13.9261 34.7275 13.9574C34.5428 13.9858 34.3624 14.0114 34.1863 14.0341C34.013 14.054 33.8723 14.071 33.7644 14.0852C33.503 14.1193 33.2587 14.1747 33.0314 14.2514C32.807 14.3253 32.6252 14.4375 32.486 14.5881C32.3496 14.7358 32.2814 14.9375 32.2814 15.1932C32.2814 15.5426 32.4107 15.8068 32.6692 15.9858C32.9306 16.1619 33.2615 16.25 33.6621 16.25ZM43.4622 10.4545L41.0417 17H40.019L37.5985 10.4545H38.6895L40.4963 15.6705H40.5645L42.3713 10.4545H43.4622ZM47.2995 17.1364C46.6689 17.1364 46.1248 16.9972 45.6674 16.7188C45.2129 16.4375 44.862 16.0455 44.6149 15.5426C44.3706 15.0369 44.2484 14.4489 44.2484 13.7784C44.2484 13.108 44.3706 12.517 44.6149 12.0057C44.862 11.4915 45.2058 11.0909 45.6461 10.804C46.0893 10.5142 46.6064 10.3693 47.1973 10.3693C47.5382 10.3693 47.8748 10.4261 48.2072 10.5398C48.5396 10.6534 48.8422 10.8381 49.1149 11.0938C49.3876 11.3466 49.6049 11.6818 49.7669 12.0994C49.9288 12.517 50.0098 13.0312 50.0098 13.642V14.0682H44.9643V13.1989H48.987C48.987 12.8295 48.9132 12.5 48.7654 12.2102C48.6206 11.9205 48.4132 11.6918 48.1433 11.5241C47.8762 11.3565 47.5609 11.2727 47.1973 11.2727C46.7967 11.2727 46.4501 11.3722 46.1575 11.571C45.8677 11.767 45.6447 12.0227 45.4885 12.3381C45.3322 12.6534 45.2541 12.9915 45.2541 13.3523V13.9318C45.2541 14.4261 45.3393 14.8452 45.5098 15.1889C45.6831 15.5298 45.9231 15.7898 46.2299 15.9688C46.5368 16.1449 46.8933 16.233 47.2995 16.233C47.5637 16.233 47.8024 16.196 48.0154 16.1222C48.2314 16.0455 48.4174 15.9318 48.5737 15.7812C48.7299 15.6278 48.8507 15.4375 48.9359 15.2102L49.9075 15.483C49.8052 15.8125 49.6333 16.1023 49.3919 16.3523C49.1504 16.5994 48.8521 16.7926 48.497 16.9318C48.1419 17.0682 47.7427 17.1364 47.2995 17.1364ZM55.051 17V8.27273H57.9998C58.6845 8.27273 59.2441 8.39631 59.6788 8.64347C60.1163 8.88778 60.4402 9.21875 60.6504 9.63636C60.8606 10.054 60.9657 10.5199 60.9657 11.0341C60.9657 11.5483 60.8606 12.0156 60.6504 12.4361C60.443 12.8565 60.122 13.1918 59.6873 13.4418C59.2527 13.6889 58.6958 13.8125 58.0169 13.8125H55.9032V12.875H57.9828C58.4515 12.875 58.8279 12.794 59.112 12.6321C59.3961 12.4702 59.6021 12.2514 59.7299 11.9759C59.8606 11.6974 59.926 11.3835 59.926 11.0341C59.926 10.6847 59.8606 10.3722 59.7299 10.0966C59.6021 9.82102 59.3947 9.60511 59.1078 9.44886C58.8208 9.28977 58.4402 9.21023 57.9657 9.21023H56.1078V17H55.051ZM63.5375 8.27273V17H62.5318V8.27273H63.5375ZM67.3056 17.1534C66.8908 17.1534 66.5144 17.0753 66.1763 16.919C65.8382 16.7599 65.5698 16.5312 65.3709 16.233C65.1721 15.9318 65.0726 15.5682 65.0726 15.142C65.0726 14.767 65.1465 14.4631 65.2942 14.2301C65.4419 13.9943 65.6394 13.8097 65.8865 13.6761C66.1337 13.5426 66.4064 13.4432 66.7047 13.3778C67.0059 13.3097 67.3084 13.2557 67.6124 13.2159C68.0101 13.1648 68.3326 13.1264 68.5797 13.1009C68.8297 13.0724 69.0115 13.0256 69.1252 12.9602C69.2417 12.8949 69.2999 12.7812 69.2999 12.6193V12.5852C69.2999 12.1648 69.1848 11.8381 68.9547 11.6051C68.7275 11.3722 68.3823 11.2557 67.9192 11.2557C67.4391 11.2557 67.0627 11.3608 66.79 11.571C66.5172 11.7812 66.3255 12.0057 66.2147 12.2443L65.2601 11.9034C65.4306 11.5057 65.6578 11.196 65.9419 10.9744C66.2289 10.75 66.5414 10.5937 66.8794 10.5057C67.2203 10.4148 67.5556 10.3693 67.8851 10.3693C68.0953 10.3693 68.3368 10.3949 68.6096 10.446C68.8851 10.4943 69.1507 10.5952 69.4064 10.7486C69.665 10.902 69.8794 11.1335 70.0499 11.4432C70.2203 11.7528 70.3056 12.1676 70.3056 12.6875V17H69.2999V16.1136H69.2488C69.1806 16.2557 69.0669 16.4077 68.9078 16.5696C68.7488 16.7315 68.5371 16.8693 68.2729 16.983C68.0087 17.0966 67.6863 17.1534 67.3056 17.1534ZM67.459 16.25C67.8567 16.25 68.1919 16.1719 68.4647 16.0156C68.7402 15.8594 68.9476 15.6577 69.0868 15.4105C69.2289 15.1634 69.2999 14.9034 69.2999 14.6307V13.7102C69.2573 13.7614 69.1635 13.8082 69.0186 13.8509C68.8766 13.8906 68.7118 13.9261 68.5243 13.9574C68.3397 13.9858 68.1593 14.0114 67.9831 14.0341C67.8098 14.054 67.6692 14.071 67.5613 14.0852C67.2999 14.1193 67.0556 14.1747 66.8283 14.2514C66.6039 14.3253 66.4221 14.4375 66.2828 14.5881C66.1465 14.7358 66.0783 14.9375 66.0783 15.1932C66.0783 15.5426 66.2076 15.8068 66.4661 15.9858C66.7275 16.1619 67.0584 16.25 67.459 16.25ZM72.5545 19.4545C72.3841 19.4545 72.2321 19.4403 72.0985 19.4119C71.965 19.3864 71.8727 19.3608 71.8216 19.3352L72.0772 18.4489C72.3216 18.5114 72.5375 18.5341 72.725 18.517C72.9125 18.5 73.0787 18.4162 73.2235 18.2656C73.3713 18.1179 73.5062 17.8778 73.6284 17.5455L73.8159 17.0341L71.3954 10.4545H72.4863L74.2931 15.6705H74.3613L76.1681 10.4545H77.2591L74.4806 17.9545C74.3556 18.2926 74.2008 18.5724 74.0162 18.794C73.8315 19.0185 73.617 19.1847 73.3727 19.2926C73.1312 19.4006 72.8585 19.4545 72.5545 19.4545ZM79.5922 8.27273V17H78.5865V8.27273H79.5922ZM81.4341 17V10.4545H82.4398V17H81.4341ZM81.9455 9.36364C81.7495 9.36364 81.5804 9.29688 81.4384 9.16335C81.2992 9.02983 81.2296 8.86932 81.2296 8.68182C81.2296 8.49432 81.2992 8.33381 81.4384 8.20028C81.5804 8.06676 81.7495 8 81.9455 8C82.1415 8 82.3091 8.06676 82.4483 8.20028C82.5904 8.33381 82.6614 8.49432 82.6614 8.68182C82.6614 8.86932 82.5904 9.02983 82.4483 9.16335C82.3091 9.29688 82.1415 9.36364 81.9455 9.36364ZM88.9181 11.9205L88.0147 12.1761C87.9579 12.0256 87.8741 11.8793 87.7633 11.7372C87.6554 11.5923 87.5076 11.473 87.3201 11.3793C87.1326 11.2855 86.8926 11.2386 86.6 11.2386C86.1994 11.2386 85.8656 11.331 85.5985 11.5156C85.3343 11.6974 85.2022 11.929 85.2022 12.2102C85.2022 12.4602 85.2931 12.6577 85.475 12.8026C85.6568 12.9474 85.9409 13.0682 86.3272 13.1648L87.2988 13.4034C87.8841 13.5455 88.3201 13.7628 88.6071 14.0554C88.894 14.3452 89.0375 14.7187 89.0375 15.1761C89.0375 15.5511 88.9295 15.8864 88.7136 16.1818C88.5005 16.4773 88.2022 16.7102 87.8187 16.8807C87.4352 17.0511 86.9892 17.1364 86.4806 17.1364C85.813 17.1364 85.2605 16.9915 84.823 16.7017C84.3855 16.4119 84.1085 15.9886 83.992 15.4318L84.9466 15.1932C85.0375 15.5455 85.2093 15.8097 85.4622 15.9858C85.7179 16.1619 86.0517 16.25 86.4636 16.25C86.9324 16.25 87.3045 16.1506 87.5801 15.9517C87.8585 15.75 87.9977 15.5085 87.9977 15.2273C87.9977 15 87.9181 14.8097 87.7591 14.6562C87.6 14.5 87.3556 14.3835 87.0261 14.3068L85.9352 14.0511C85.3358 13.9091 84.8954 13.6889 84.6142 13.3906C84.3358 13.0895 84.1966 12.7131 84.1966 12.2614C84.1966 11.892 84.3002 11.5653 84.5076 11.2812C84.7179 10.9972 85.0034 10.7741 85.3642 10.6122C85.7278 10.4503 86.1397 10.3693 86.6 10.3693C87.2477 10.3693 87.7562 10.5114 88.1255 10.7955C88.4977 11.0795 88.7619 11.4545 88.9181 11.9205ZM93.3979 10.4545V11.3068H90.0059V10.4545H93.3979ZM90.9945 8.88636H92.0002V15.125C92.0002 15.4091 92.0414 15.6222 92.1238 15.7642C92.209 15.9034 92.3169 15.9972 92.4476 16.0455C92.5811 16.0909 92.7218 16.1136 92.8695 16.1136C92.9803 16.1136 93.0712 16.108 93.1422 16.0966C93.2132 16.0824 93.2701 16.071 93.3127 16.0625L93.5172 16.9659C93.449 16.9915 93.3539 17.017 93.2317 17.0426C93.1096 17.071 92.9547 17.0852 92.7672 17.0852C92.4831 17.0852 92.2047 17.0241 91.932 16.902C91.6621 16.7798 91.4377 16.5938 91.2587 16.3438C91.0826 16.0938 90.9945 15.7784 90.9945 15.3977V8.88636Z" fill="white"/>
</g>
<defs>
<clipPath id="clip0_20_36">
<rect width="116" height="29" rx="10" fill="white"/>
</clipPath>
</defs>
</svg>
