<svg width="75" height="35" viewBox="0 0 72 28" fill="none" xmlns="http://www.w3.org/2000/svg">
<path d="M62 0H10C4.47715 0 0 4.64297 0 10.3704V17.6296C0 23.357 4.47715 28 10 28H62C67.5229 28 72 23.357 72 17.6296V10.3704C72 4.64297 67.5229 0 62 0Z" fill="#394150"/>
<path d="M16.1596 11.8787C16.1085 11.4309 15.9011 11.0833 15.5375 10.8359C15.1738 10.5883 14.7278 10.4646 14.1994 10.4646C13.813 10.4646 13.475 10.5294 13.1852 10.6591C12.8983 10.7887 12.6738 10.967 12.5119 11.1938C12.3528 11.4207 12.2733 11.6785 12.2733 11.9672C12.2733 12.2087 12.3287 12.4164 12.4395 12.5902C12.5531 12.7611 12.698 12.904 12.8741 13.0189C13.0502 13.1308 13.2349 13.2237 13.4281 13.2973C13.6213 13.368 13.7988 13.4255 13.9608 13.4696L14.8471 13.7172C15.0744 13.779 15.3272 13.8644 15.6056 13.9734C15.8869 14.0824 16.1554 14.2312 16.411 14.4198C16.6696 14.6054 16.8826 14.844 17.0502 15.1357C17.2179 15.4274 17.3017 15.7853 17.3017 16.2096C17.3017 16.6987 17.1781 17.1405 16.9309 17.5353C16.6866 17.9301 16.3287 18.2438 15.8571 18.4767C15.3883 18.7094 14.8187 18.8257 14.1483 18.8257C13.5233 18.8257 12.9821 18.7212 12.5247 18.512C12.0701 18.3028 11.7122 18.0111 11.4508 17.637C11.1923 17.2628 11.046 16.8283 11.0119 16.3333H12.1028C12.1312 16.675 12.242 16.9579 12.4352 17.1818C12.6312 17.4027 12.8784 17.5677 13.1767 17.6768C13.4778 17.7828 13.8017 17.8359 14.1483 17.8359C14.5517 17.8359 14.9139 17.7681 15.2349 17.6325C15.5559 17.4941 15.8102 17.3026 15.9977 17.0581C16.1852 16.8106 16.2789 16.5218 16.2789 16.1919C16.2789 15.8914 16.198 15.6469 16.036 15.4583C15.8741 15.2697 15.661 15.1166 15.3968 14.9988C15.1326 14.8808 14.8471 14.7778 14.5403 14.6894L13.4664 14.3712C12.7846 14.1679 12.2449 13.8777 11.8471 13.5006C11.4494 13.1235 11.2505 12.6301 11.2505 12.0202C11.2505 11.5135 11.3826 11.0715 11.6468 10.6944C11.9139 10.3144 12.2718 10.0198 12.7207 9.81059C13.1724 9.59846 13.6767 9.4924 14.2335 9.4924C14.796 9.4924 15.296 9.59699 15.7335 9.80617C16.171 10.0124 16.5176 10.2952 16.7733 10.6546C17.0318 11.014 17.1681 11.4221 17.1824 11.8787H16.1596ZM19.8404 16.1919L19.8233 14.9015H20.0279L22.8915 11.8787H24.1358L21.0847 15.0783H20.9995L19.8404 16.1919ZM18.9029 18.6666V9.61614H19.9086V18.6666H18.9029ZM23.062 18.6666L20.5051 15.3081L21.2211 14.5833L24.3404 18.6666H23.062ZM25.4302 18.6666V11.8787H26.4359V18.6666H25.4302ZM25.9416 10.7474C25.7456 10.7474 25.5765 10.6782 25.4345 10.5398C25.2953 10.4013 25.2257 10.2348 25.2257 10.0404C25.2257 9.84594 25.2953 9.67949 25.4345 9.54101C25.5765 9.40255 25.7456 9.33331 25.9416 9.33331C26.1376 9.33331 26.3052 9.40255 26.4444 9.54101C26.5865 9.67949 26.6575 9.84594 26.6575 10.0404C26.6575 10.2348 26.5865 10.4013 26.4444 10.5398C26.3052 10.6782 26.1376 10.7474 25.9416 10.7474ZM28.2779 21.2121V11.8787H29.2495V12.957H29.3688C29.4426 12.8392 29.5449 12.689 29.6756 12.5063C29.8091 12.3207 29.9995 12.1557 30.2466 12.0114C30.4966 11.864 30.8347 11.7904 31.2608 11.7904C31.812 11.7904 32.2978 11.9333 32.7182 12.2191C33.1387 12.5048 33.4668 12.91 33.7026 13.4343C33.9384 13.9587 34.0563 14.5774 34.0563 15.2904C34.0563 16.0092 33.9384 16.6324 33.7026 17.1597C33.4668 17.6842 33.1401 18.0907 32.7225 18.3794C32.3049 18.6652 31.8233 18.8081 31.2779 18.8081C30.8574 18.8081 30.5208 18.7359 30.2679 18.5916C30.0151 18.4442 29.8205 18.2778 29.6841 18.0921C29.5478 17.9036 29.4426 17.7474 29.3688 17.6237H29.2836V21.2121H28.2779ZM29.2665 15.2727C29.2665 15.7853 29.339 16.2376 29.4838 16.6294C29.6287 17.0183 29.8404 17.3232 30.1188 17.5442C30.3972 17.7621 30.7381 17.8712 31.1415 17.8712C31.562 17.8712 31.9128 17.7563 32.1941 17.5265C32.4782 17.2937 32.6912 16.9815 32.8333 16.5897C32.9782 16.1949 33.0506 15.7559 33.0506 15.2727C33.0506 14.7954 32.9796 14.3653 32.8375 13.9823C32.6983 13.5964 32.4867 13.2915 32.2026 13.0676C31.9213 12.8407 31.5676 12.7272 31.1415 12.7272C30.7324 12.7272 30.3887 12.8348 30.1103 13.0498C29.8319 13.262 29.6216 13.5596 29.4796 13.9425C29.3375 14.3226 29.2665 14.7659 29.2665 15.2727Z" fill="white"/>
<path d="M59.791 14.9936C59.791 19.9392 55.829 23.9872 50.8955 23.9872C45.9621 23.9872 42 19.9392 42 14.9936C42 10.0481 45.9621 6 50.8955 6C55.829 6 59.791 10.0481 59.791 14.9936Z" fill="white" stroke="black"/>
<path d="M51.9938 15.0121L47.5281 17.6479L47.4963 12.4308L51.9938 15.0121Z" fill="black"/>
<path d="M53.5 11V19.2298" stroke="black"/>
</svg>